<svg width="38" height="26" viewBox="0 0 38 26" fill="none" xmlns="http://www.w3.org/2000/svg">
<path d="M18.7917 0.1875C10.25 0.1875 2.95542 5.50042 0 13C2.95542 20.4996 10.25 25.8125 18.7917 25.8125C27.3333 25.8125 34.6279 20.4996 37.5833 13C34.6279 5.50042 27.3333 0.1875 18.7917 0.1875ZM18.7917 21.5417C14.0767 21.5417 10.25 17.715 10.25 13C10.25 8.285 14.0767 4.45833 18.7917 4.45833C23.5067 4.45833 27.3333 8.285 27.3333 13C27.3333 17.715 23.5067 21.5417 18.7917 21.5417ZM18.7917 7.875C15.9558 7.875 13.6667 10.1642 13.6667 13C13.6667 15.8358 15.9558 18.125 18.7917 18.125C21.6275 18.125 23.9167 15.8358 23.9167 13C23.9167 10.1642 21.6275 7.875 18.7917 7.875Z" fill="#4B4B4B"/>
</svg>
