<svg width="66" height="54" viewBox="0 0 66 54" fill="none" xmlns="http://www.w3.org/2000/svg">
<g clip-path="url(#clip0_7_321)">
<path fill-rule="evenodd" clip-rule="evenodd" d="M37.6054 9.28835L38.7147 7.38672L39.8242 9.28835L64.7944 52.0896L65.9089 53.9999H63.6901H13.7393H11.5205L12.635 52.0896L16.7959 44.9575H19.0147L14.8539 52.0896H62.5756L38.7147 11.19L27.2249 30.8844H25.0061L37.6054 9.28835Z" fill="#3161DE"/>
<path fill-rule="evenodd" clip-rule="evenodd" d="M26.0311 1.91038L27.1388 0L28.2465 1.91038L53.1699 44.8939L54.2776 46.8042H52.0622H2.21541H0L1.07078 44.9576H38.9062L38.9003 44.8939H50.9546L27.1388 3.82076L11.4094 30.9481H9.19396L26.0311 1.91038Z" fill="black"/>
<path d="M9.94293 42.1554C9.86107 42.1554 9.79148 42.1309 9.73418 42.082C9.68507 42.025 9.66051 41.9557 9.66051 41.8742V34.685H7.30293C7.22107 34.685 7.15148 34.6606 7.09418 34.6117C7.04507 34.5546 7.02051 34.4853 7.02051 34.4038V33.8903C7.02051 33.8006 7.04507 33.7314 7.09418 33.6825C7.15148 33.6254 7.22107 33.5969 7.30293 33.5969H13.2215C13.3115 33.5969 13.3811 33.6254 13.4302 33.6825C13.4875 33.7314 13.5162 33.8006 13.5162 33.8903V34.4038C13.5162 34.4853 13.4875 34.5546 13.4302 34.6117C13.3811 34.6606 13.3115 34.685 13.2215 34.685H10.8761V41.8742C10.8761 41.9557 10.8475 42.025 10.7902 42.082C10.7411 42.1309 10.6715 42.1554 10.5814 42.1554H9.94293ZM17.987 42.2776C17.2339 42.2776 16.6077 42.1391 16.1083 41.8619C15.6172 41.5848 15.2447 41.1976 14.9909 40.7004C14.7372 40.2032 14.598 39.6245 14.5734 38.9643C14.5653 38.6301 14.5612 38.2714 14.5612 37.8883C14.5612 37.5053 14.5653 37.1385 14.5734 36.788C14.598 36.1277 14.7372 35.549 14.9909 35.0518C15.2447 34.5546 15.6172 34.1674 16.1083 33.8903C16.6077 33.6132 17.2339 33.4746 17.987 33.4746C18.5519 33.4746 19.0471 33.552 19.4728 33.7069C19.8985 33.8618 20.2505 34.0696 20.5288 34.3305C20.8153 34.5913 21.0322 34.8847 21.1796 35.2108C21.3269 35.5286 21.4088 35.8588 21.4252 36.2011C21.4333 36.2745 21.4088 36.3356 21.3515 36.3845C21.3024 36.4334 21.241 36.4579 21.1673 36.4579H20.492C20.4183 36.4579 20.3528 36.4375 20.2955 36.3967C20.2464 36.356 20.2095 36.2826 20.185 36.1766C20.0458 35.5409 19.7839 35.1048 19.3991 34.8684C19.0226 34.632 18.5478 34.5139 17.9747 34.5139C17.3199 34.5139 16.8 34.7013 16.4153 35.0763C16.0306 35.4431 15.8218 36.034 15.7891 36.8491C15.7645 37.5175 15.7645 38.2022 15.7891 38.9031C15.8218 39.7182 16.0306 40.3133 16.4153 40.6882C16.8 41.055 17.3199 41.2384 17.9747 41.2384C18.5478 41.2384 19.0226 41.1202 19.3991 40.8838C19.7839 40.6474 20.0458 40.2114 20.185 39.5756C20.2095 39.4696 20.2464 39.3963 20.2955 39.3555C20.3528 39.3148 20.4183 39.2944 20.492 39.2944H21.1673C21.241 39.2944 21.3024 39.3188 21.3515 39.3677C21.4088 39.4166 21.4333 39.4778 21.4252 39.5511C21.4088 39.8935 21.3269 40.2277 21.1796 40.5537C21.0322 40.8716 20.8153 41.1609 20.5288 41.4218C20.2505 41.6826 19.8985 41.8905 19.4728 42.0453C19.0471 42.2002 18.5519 42.2776 17.987 42.2776ZM23.3531 42.1554C23.2631 42.1554 23.1935 42.1309 23.1444 42.082C23.0952 42.025 23.0707 41.9557 23.0707 41.8742V33.8903C23.0707 33.8006 23.0952 33.7314 23.1444 33.6825C23.1935 33.6254 23.2631 33.5969 23.3531 33.5969H29.4067C29.4967 33.5969 29.5663 33.6254 29.6154 33.6825C29.6727 33.7314 29.7014 33.8006 29.7014 33.8903V41.8742C29.7014 41.9557 29.6727 42.025 29.6154 42.082C29.5663 42.1309 29.4967 42.1554 29.4067 42.1554H28.7805C28.6986 42.1554 28.629 42.1309 28.5717 42.082C28.5226 42.025 28.498 41.9557 28.498 41.8742V34.6973H24.274V41.8742C24.274 41.9557 24.2454 42.025 24.1881 42.082C24.139 42.1309 24.0694 42.1554 23.9793 42.1554H23.3531ZM32.1068 42.1554C32.0168 42.1554 31.9472 42.1309 31.8981 42.082C31.8489 42.025 31.8244 41.9557 31.8244 41.8742V33.8903C31.8244 33.8006 31.8489 33.7314 31.8981 33.6825C31.9472 33.6254 32.0168 33.5969 32.1068 33.5969H32.733C32.8231 33.5969 32.8927 33.6254 32.9418 33.6825C32.9991 33.7314 33.0277 33.8006 33.0277 33.8903V37.2648H34.4153L36.6009 33.7925C36.6419 33.7273 36.6951 33.6784 36.7606 33.6458C36.8261 33.6132 36.912 33.5969 37.0184 33.5969H37.6815C37.7715 33.5969 37.837 33.6213 37.878 33.6702C37.9189 33.7191 37.9394 33.7762 37.9394 33.8414C37.9394 33.8903 37.9189 33.9433 37.878 34.0003L35.5204 37.7416L38.1113 41.7274C38.1358 41.76 38.1481 41.8049 38.1481 41.8619C38.1481 41.9434 38.1195 42.0127 38.0622 42.0698C38.013 42.1268 37.9475 42.1554 37.8657 42.1554H37.1658C37.0757 42.1554 37.0061 42.1391 36.957 42.1065C36.9161 42.0657 36.8793 42.0209 36.8465 41.972L34.4644 38.3652H33.0277V41.8742C33.0277 41.9557 32.9991 42.025 32.9418 42.082C32.8927 42.1309 32.8231 42.1554 32.733 42.1554H32.1068Z" fill="black"/>
</g>
<defs>
<clipPath id="clip0_7_321">
<rect width="66" height="54" fill="white"/>
</clipPath>
</defs>
</svg>
