<svg width="36" height="36" viewBox="0 0 36 36" fill="none" xmlns="http://www.w3.org/2000/svg">
<rect width="36" height="36" rx="18" fill="#3161DE"/>
<path fill-rule="evenodd" clip-rule="evenodd" d="M27.5292 13.8333C27.6775 13.3633 27.5292 13.0217 26.8729 13.0217H24.6909C24.1404 13.0217 23.8863 13.3208 23.7379 13.6408C23.7379 13.6408 22.6154 16.3742 21.0479 18.1463C20.5396 18.6588 20.3067 18.8296 20.0313 18.8296C19.8829 18.8296 19.6921 18.6588 19.6921 18.1892V13.8113C19.6921 13.2563 19.5229 13 19.0567 13H15.625C15.2858 13 15.0742 13.2563 15.0742 13.5125C15.0742 14.0463 15.8579 14.1746 15.9425 15.6692V18.9167C15.9425 19.6213 15.8175 19.75 15.54 19.75C14.7988 19.75 12.9983 16.9954 11.9183 13.8567C11.7083 13.235 11.495 13 10.9442 13H8.74125C8.10583 13 8 13.2988 8 13.6192C8 14.1958 8.74125 17.0996 11.4525 20.9429C13.2529 23.5679 15.8158 24.9787 18.1246 24.9787C19.5229 24.9787 19.6921 24.6583 19.6921 24.1246V22.1387C19.6921 21.4983 19.8192 21.3917 20.2642 21.3917C20.5817 21.3917 21.1538 21.5621 22.4459 22.8221C23.9284 24.3167 24.1825 25 25.0088 25H27.1904C27.8259 25 28.1225 24.6796 27.9529 24.0604C27.7625 23.4413 27.0421 22.5446 26.11 21.4771C25.6017 20.8796 24.8392 20.2175 24.6063 19.8971C24.2888 19.47 24.3734 19.2992 24.6063 18.915C24.585 18.915 27.2542 15.1142 27.5292 13.8317" fill="white"/>
</svg>
